# xmcd
#
# Track frame offsets:
#	150
#	17919
#	37991
#	59798
#	79223
#	103543
#	123398
#	145225
#	166347
#	184042
#	204957
#	254632
#	272124
#	297382
#	315600
#	336670
#
# Disc length: 4767 seconds
#
# Revision: 2
# Processed by: cddbd v1.5.2PL0 Copyright (c) Steve Scherf et al.
# Submitted via: EasyCDDAExtractor 15.3.0.1
#
DISCID=f8129d10
DTITLE=Eros Ramazzotti - Best Love Songs
DYEAR=2012
DGENRE=Latin
TTITLE0=Inevitabile
TTITLE1=La Cosa Mas Bella
TTITLE2=Cosas De La Vida
TTITLE3=Cuanto Amor Me Das
TTITLE4=Si Bastasen Un Par De Canciones
TTITLE5=Amarte Es Total
TTITLE6=Canciones Lejanas
TTITLE7=Otra Como Tu
TTITLE8=Una Emocion Para Siempre
TTITLE9=Fabula
TTITLE10=Musica Es
TTITLE11=Toma La Luna
TTITLE12=La Aurora
TTITLE13=Fuego En El Fuego
TTITLE14=Un Angel No Es
TTITLE15=Nuestra Vida
EXTD=
EXTT0=
EXTT1=
EXTT2=
EXTT3=
EXTT4=
EXTT5=
EXTT6=
EXTT7=
EXTT8=
EXTT9=
EXTT10=
EXTT11=
EXTT12=
EXTT13=
EXTT14=
EXTT15=
PLAYORDER=
